<?xml version="1.0" standalone="no"?>
<!DOCTYPE svg PUBLIC "-//W3C//DTD SVG 20010904//EN"
 "http://www.w3.org/TR/2001/REC-SVG-20010904/DTD/svg10.dtd">
<svg version="1.0" xmlns="http://www.w3.org/2000/svg"
 width="384.000000pt" height="384.000000pt" viewBox="0 0 384.000000 384.000000"
 preserveAspectRatio="xMidYMid meet">
<metadata>
Created by potrace 1.11, written by Peter Selinger 2001-2013
</metadata>
<g transform="translate(0.000000,384.000000) scale(0.100000,-0.100000)"
fill="#000000" stroke="none">
<path d="M1030 3583 c-52 -27 -83 -95 -83 -186 -1 -97 28 -165 84 -196 l39
-22 0 -122 0 -122 -224 -1 c-242 -1 -289 -9 -334 -57 -19 -20 -21 -37 -26
-232 -3 -115 -8 -304 -11 -420 -14 -515 -4 -422 -100 -903 -3 -12 -7 -32 -9
-45 -2 -12 -7 -33 -10 -47 -3 -14 -8 -36 -10 -50 -3 -14 -27 -137 -55 -274
-47 -229 -51 -260 -51 -388 0 -132 1 -140 23 -162 42 -42 202 -88 357 -104 91
-9 432 -9 510 1 185 21 311 57 359 103 23 22 24 29 25 156 1 101 -4 160 -21
245 -13 62 -25 125 -28 140 -2 16 -25 129 -50 253 -25 124 -48 236 -50 250 -2
14 -14 69 -25 123 -11 55 -18 102 -15 107 2 4 19 10 36 14 17 3 46 21 65 40
34 34 38 49 36 139 l-1 27 90 0 c77 0 177 -19 199 -37 2 -2 -8 -14 -22 -28
-20 -18 -25 -31 -22 -61 3 -45 19 -59 94 -81 103 -30 296 -14 352 29 29 22 30
74 2 107 -31 37 -30 51 2 51 14 0 35 5 46 11 12 6 56 12 100 14 65 1 78 -1 79
-14 4 -44 7 -78 8 -100 1 -32 64 -89 106 -97 39 -7 38 3 10 -124 -9 -41 -18
-86 -21 -100 -6 -31 -34 -169 -39 -190 -2 -8 -19 -91 -38 -185 -20 -93 -46
-217 -58 -275 -23 -108 -33 -356 -17 -392 35 -74 302 -131 618 -132 269 0 473
30 585 87 62 31 64 37 65 191 0 116 -5 164 -30 285 -16 80 -32 162 -35 181 -3
19 -10 51 -15 70 -5 19 -12 51 -15 70 -3 19 -14 78 -25 130 -11 52 -21 106
-24 120 -3 14 -21 104 -40 200 -32 160 -35 195 -41 410 -3 129 -8 323 -11 430
-14 499 -5 448 -84 484 -40 18 -69 20 -260 22 -118 2 -222 3 -230 3 -13 1 -15
20 -12 124 l3 122 37 20 c54 29 83 89 87 178 3 63 -1 81 -23 127 -38 76 -73
95 -172 91 -142 -6 -285 -5 -398 2 -101 6 -117 5 -151 -12 -101 -52 -112 -293
-17 -366 18 -14 38 -25 44 -25 7 0 12 -16 12 -37 0 -21 2 -97 3 -169 l4 -131
-38 1 -38 1 20 21 c19 20 26 78 11 100 -34 52 -248 78 -368 45 -87 -24 -122
-88 -75 -138 20 -21 20 -21 -12 -24 -18 -2 -43 -3 -55 -1 -21 3 -23 7 -16 30
4 15 8 88 9 162 2 74 7 136 11 137 72 24 114 96 116 195 2 82 -15 140 -52 177
-37 37 -83 45 -197 35 -111 -11 -274 -11 -378 -1 -68 7 -85 5 -115 -10z"/>
</g>
</svg>
